<svg width="164" height="164" viewBox="0 0 164 164" fill="none" xmlns="http://www.w3.org/2000/svg">
<path d="M54.6667 75.1667V46.125C54.6667 31.9727 66.1394 20.5 80.2917 20.5C94.4442 20.5 105.917 31.9727 105.917 46.125V75.1667M44.4167 143.5H116.167C123.715 143.5 129.833 137.381 129.833 129.833V88.8333C129.833 81.2852 123.715 75.1667 116.167 75.1667H44.4167C36.8688 75.1667 30.75 81.2852 30.75 88.8333V129.833C30.75 137.381 36.8688 143.5 44.4167 143.5ZM95.6667 109.333C95.6667 116.881 89.5481 123 82 123C74.4519 123 68.3333 116.881 68.3333 109.333C68.3333 101.785 74.4519 95.6667 82 95.6667C89.5481 95.6667 95.6667 101.785 95.6667 109.333Z" stroke="black" stroke-width="4" stroke-linecap="round"/>
</svg>
